<svg width="169" height="169" viewBox="0 0 169 169" fill="none" xmlns="http://www.w3.org/2000/svg">
<path d="M137.39 166.082L33.9278 167.888C29.8517 167.959 25.8014 167.227 22.0083 165.733C18.2152 164.238 14.7536 162.012 11.8211 159.18C8.88856 156.348 6.54259 152.966 4.91714 149.227C3.2917 145.489 2.4186 141.466 2.34772 137.39L0.541775 33.9279C0.470496 29.8519 1.20278 25.8017 2.69682 22.0087C4.19086 18.2157 6.4174 14.7541 9.24928 11.8216C12.0812 8.88907 15.4629 6.54309 19.2015 4.91758C22.9401 3.29208 26.9622 2.41889 31.0383 2.34787L134.501 0.541933C138.577 0.470655 142.627 1.20294 146.42 2.69698C150.213 4.19102 153.674 6.41755 156.607 9.24944C159.539 12.0813 161.885 15.4631 163.511 19.2017C165.136 22.9402 166.01 26.9624 166.081 31.0384L167.886 134.501C167.958 138.577 167.226 142.627 165.732 146.42C164.238 150.213 162.011 153.675 159.179 156.608C156.347 159.54 152.966 161.886 149.227 163.512C145.488 165.137 141.466 166.011 137.39 166.082Z" fill="#1363DF" fill-opacity="0.1"/>
<path d="M109.598 56.1752L99.2522 56.3558C96.966 56.3986 94.7901 57.3464 93.2017 58.9912C91.6133 60.6361 90.7421 62.8437 90.7791 65.13L90.9597 75.4765C91.0035 77.7619 91.9518 79.9366 93.5965 81.524C95.2412 83.1114 97.4483 83.9819 99.7338 83.9446L110.079 83.764C110.658 83.7535 111.234 83.6845 111.799 83.558L111.922 90.6289C111.982 94.2872 110.588 97.8198 108.047 100.452C105.505 103.084 102.023 104.6 98.3652 104.668L94.9198 104.728C94.0197 104.765 93.1699 105.153 92.5519 105.809C91.934 106.464 91.5968 107.335 91.6126 108.236C91.6283 109.137 91.9956 109.996 92.6361 110.629C93.2765 111.263 94.1393 111.621 95.0402 111.627L98.4907 111.567C103.978 111.466 109.202 109.193 113.015 105.245C116.828 101.296 118.918 95.9963 118.826 90.5084L118.375 64.6514C118.331 62.3654 117.383 60.19 115.739 58.6017C114.094 57.0135 111.887 56.142 109.601 56.1782L109.598 56.1752Z" fill="#1363DF"/>
<path d="M68.213 56.8974L57.8676 57.078C55.5814 57.1208 53.4055 58.0685 51.817 59.7134C50.2286 61.3582 49.3574 63.5659 49.3944 65.8522L49.575 76.1986C49.6181 78.4843 50.5661 80.6595 52.211 82.2471C53.8559 83.8346 56.0634 84.7048 58.3491 84.6668L68.6945 84.4862C69.2732 84.4757 69.8494 84.4067 70.4142 84.2802L70.5376 91.3511C70.5975 95.0093 69.2038 98.542 66.6622 101.174C64.1206 103.806 60.6387 105.322 56.9806 105.39L53.5351 105.45C53.0749 105.447 52.6188 105.536 52.1935 105.712C51.7683 105.888 51.3825 106.147 51.0588 106.474C50.7352 106.801 50.4803 107.19 50.3091 107.617C50.1378 108.044 50.0538 108.501 50.0618 108.961C50.0698 109.421 50.1698 109.875 50.3558 110.296C50.5419 110.717 50.8102 111.096 51.145 111.412C51.4799 111.728 51.8745 111.973 52.3056 112.134C52.7368 112.295 53.1957 112.368 53.6555 112.349L57.106 112.289C62.5938 112.189 67.8175 109.915 71.6303 105.967C75.4431 102.018 77.5331 96.7185 77.4416 91.2306L76.9902 65.3735C76.9466 63.0876 75.9986 60.9121 74.354 59.3239C72.7093 57.7356 70.5021 56.8641 68.216 56.9003L68.213 56.8974Z" fill="#1363DF" fill-opacity="0.4"/>
</svg>
